<svg width="297" height="96" viewBox="0 0 297 96" fill="none" xmlns="http://www.w3.org/2000/svg">
<path d="M38.995 66.8903H46.4227V74.3226H38.995V66.8903ZM38.995 59.4581H46.4227V66.8903H38.995V59.4581ZM38.995 52.0258H46.4227V59.4581H38.995V52.0258ZM38.995 44.5935H46.4227V52.0258H38.995V44.5935ZM38.995 37.1613H46.4227V44.5935H38.995V37.1613ZM38.995 29.729H46.4227V37.1613H38.995V29.729ZM46.4227 29.729H53.8503V37.1613H46.4227V29.729ZM46.4227 22.2968H53.8503V29.729H46.4227V22.2968ZM46.4227 14.8645H53.8503V22.2968H46.4227V14.8645ZM46.4227 7.43225H53.8503V14.8645H46.4227V7.43225ZM38.995 7.43225H46.4227V14.8645H38.995V7.43225ZM38.995 0H46.4227V7.43225H38.995V0ZM38.995 14.8645H46.4227V22.2968H38.995V14.8645ZM38.995 22.2968H46.4227V29.729H38.995V22.2968ZM46.4227 0H53.8503V7.43225H46.4227V0ZM46.4227 37.1613H53.8503V44.5935H46.4227V37.1613ZM46.4227 44.5935H53.8503V52.0258H46.4227V44.5935ZM46.4227 52.0258H53.8503V59.4581H46.4227V52.0258ZM46.4227 59.4581H53.8503V66.8903H46.4227V59.4581ZM46.4227 66.8903H53.8503V74.3226H46.4227V66.8903ZM53.8503 14.8645H61.2779V22.2968H53.8503V14.8645ZM53.8503 22.2968H61.2779V29.729H53.8503V22.2968ZM61.2779 22.2968H68.7055V29.729H61.2779V22.2968ZM61.2779 29.729H68.7055V37.1613H61.2779V29.729ZM68.7055 29.729H76.1332V37.1613H68.7055V29.729ZM68.7055 37.1613H76.1332V44.5935H68.7055V37.1613ZM76.1332 29.729H83.5608V37.1613H76.1332V29.729ZM76.1332 22.2968H83.5608V29.729H76.1332V22.2968ZM83.5608 22.2968H90.9884V29.729H83.5608V22.2968ZM83.5608 14.8645H90.9884V22.2968H83.5608V14.8645ZM90.9884 0H98.416V7.43225H90.9884V0ZM90.9884 7.43225H98.416V14.8645H90.9884V7.43225ZM90.9884 14.8645H98.416V22.2968H90.9884V14.8645ZM90.9884 22.2968H98.416V29.729H90.9884V22.2968ZM90.9884 29.729H98.416V37.1613H90.9884V29.729ZM90.9884 37.1613H98.416V44.5935H90.9884V37.1613ZM90.9884 44.5935H98.416V52.0258H90.9884V44.5935ZM90.9884 52.0258H98.416V59.4581H90.9884V52.0258ZM90.9884 59.4581H98.416V66.8903H90.9884V59.4581ZM90.9884 66.8903H98.416V74.3226H90.9884V66.8903ZM98.416 66.8903H105.844V74.3226H98.416V66.8903ZM98.416 59.4581H105.844V66.8903H98.416V59.4581ZM98.416 52.0258H105.844V59.4581H98.416V52.0258ZM98.416 44.5935H105.844V52.0258H98.416V44.5935ZM98.416 37.1613H105.844V44.5935H98.416V37.1613ZM98.416 29.729H105.844V37.1613H98.416V29.729ZM98.416 22.2968H105.844V29.729H98.416V22.2968ZM98.416 14.8645H105.844V22.2968H98.416V14.8645ZM98.416 7.43225H105.844V14.8645H98.416V7.43225ZM98.416 0H105.844V7.43225H98.416V0ZM53.8503 7.43225H61.2779V14.8645H53.8503V7.43225ZM61.2779 14.8645H68.7055V22.2968H61.2779V14.8645ZM68.7055 22.2968H76.1332V29.729H68.7055V22.2968ZM76.1332 14.8645H83.5608V22.2968H76.1332V14.8645ZM83.5608 7.43225H90.9884V14.8645H83.5608V7.43225Z" fill="black"/>
<path d="M114.716 0H122.143V7.43225H114.716V0ZM122.143 0H129.571V7.43225H122.143V0ZM122.143 7.43225H129.571V14.8645H122.143V7.43225ZM122.143 14.8645H129.571V22.2968H122.143V14.8645ZM122.143 22.2968H129.571V29.729H122.143V22.2968ZM114.716 22.2968H122.143V29.729H114.716V22.2968ZM114.716 14.8645H122.143V22.2968H114.716V14.8645ZM114.716 7.43225H122.143V14.8645H114.716V7.43225ZM114.716 29.729H122.143V37.1613H114.716V29.729ZM114.716 37.1613H122.143V44.5935H114.716V37.1613ZM114.716 44.5935H122.143V52.0258H114.716V44.5935ZM122.143 37.1613H129.571V44.5935H122.143V37.1613ZM122.143 29.729H129.571V37.1613H122.143V29.729ZM122.143 44.5935H129.571V52.0258H122.143V44.5935ZM122.143 52.0258H129.571V59.4581H122.143V52.0258ZM114.716 59.4581H122.143V66.8903H114.716V59.4581ZM114.716 52.0258H122.143V59.4581H114.716V52.0258ZM114.716 66.8903H122.143V74.3226H114.716V66.8903ZM122.143 66.8903H129.571V74.3226H122.143V66.8903ZM122.143 59.4581H129.571V66.8903H122.143V59.4581ZM129.571 66.8903H136.999V74.3226H129.571V66.8903ZM136.999 66.8903H144.426V74.3226H136.999V66.8903ZM144.426 66.8903H151.854V74.3226H144.426V66.8903ZM144.426 59.4581H151.854V66.8903H144.426V59.4581ZM136.999 59.4581H144.426V66.8903H136.999V59.4581ZM129.571 59.4581H136.999V66.8903H129.571V59.4581ZM129.571 0H136.999V7.43225H129.571V0ZM136.999 0H144.426V7.43225H136.999V0ZM144.426 0H151.854V7.43225H144.426V0ZM151.854 0H159.282V7.43225H151.854V0ZM144.426 7.43225H151.854V14.8645H144.426V7.43225ZM136.999 7.43225H144.426V14.8645H136.999V7.43225ZM129.571 7.43225H136.999V14.8645H129.571V7.43225ZM129.571 37.1613H136.999V44.5935H129.571V37.1613ZM136.999 29.729H144.426V37.1613H136.999V29.729ZM129.571 29.729H136.999V37.1613H129.571V29.729ZM136.999 37.1613H144.426V44.5935H136.999V37.1613ZM151.854 7.43225H159.282V14.8645H151.854V7.43225ZM151.854 59.4581H159.282V66.8903H151.854V59.4581ZM151.854 66.8903H159.282V74.3226H151.854V66.8903ZM144.426 29.729H151.854V37.1613H144.426V29.729ZM144.426 37.1613H151.854V44.5935H144.426V37.1613Z" fill="black"/>
<path d="M168.096 66.8903H175.523V74.3226H168.096V66.8903ZM168.096 59.4581H175.523V66.8903H168.096V59.4581ZM168.096 52.0258H175.523V59.4581H168.096V52.0258ZM168.096 44.5935H175.523V52.0258H168.096V44.5935ZM168.096 37.1613H175.523V44.5935H168.096V37.1613ZM168.096 29.729H175.523V37.1613H168.096V29.729ZM175.523 29.729H182.951V37.1613H175.523V29.729ZM175.523 22.2968H182.951V29.729H175.523V22.2968ZM175.523 14.8645H182.951V22.2968H175.523V14.8645ZM175.523 7.43225H182.951V14.8645H175.523V7.43225ZM168.096 7.43225H175.523V14.8645H168.096V7.43225ZM168.096 0H175.523V7.43225H168.096V0ZM168.096 14.8645H175.523V22.2968H168.096V14.8645ZM168.096 22.2968H175.523V29.729H168.096V22.2968ZM175.523 0H182.951V7.43225H175.523V0ZM175.523 37.1613H182.951V44.5935H175.523V37.1613ZM175.523 44.5935H182.951V52.0258H175.523V44.5935ZM175.523 52.0258H182.951V59.4581H175.523V52.0258ZM175.523 59.4581H182.951V66.8903H175.523V59.4581ZM175.523 66.8903H182.951V74.3226H175.523V66.8903ZM182.951 14.8645H190.379V22.2968H182.951V14.8645ZM182.951 22.2968H190.379V29.729H182.951V22.2968ZM190.379 22.2968H197.806V29.729H190.379V22.2968ZM190.379 29.729H197.806V37.1613H190.379V29.729ZM197.806 29.729H205.234V37.1613H197.806V29.729ZM197.806 37.1613H205.234V44.5935H197.806V37.1613ZM205.234 29.729H212.661V37.1613H205.234V29.729ZM205.234 22.2968H212.661V29.729H205.234V22.2968ZM212.661 22.2968H220.089V29.729H212.661V22.2968ZM212.661 14.8645H220.089V22.2968H212.661V14.8645ZM220.089 0H227.517V7.43225H220.089V0ZM220.089 7.43225H227.517V14.8645H220.089V7.43225ZM220.089 14.8645H227.517V22.2968H220.089V14.8645ZM220.089 22.2968H227.517V29.729H220.089V22.2968ZM220.089 29.729H227.517V37.1613H220.089V29.729ZM220.089 37.1613H227.517V44.5935H220.089V37.1613ZM220.089 44.5935H227.517V52.0258H220.089V44.5935ZM220.089 52.0258H227.517V59.4581H220.089V52.0258ZM220.089 59.4581H227.517V66.8903H220.089V59.4581ZM220.089 66.8903H227.517V74.3226H220.089V66.8903ZM227.517 66.8903H234.944V74.3226H227.517V66.8903ZM227.517 59.4581H234.944V66.8903H227.517V59.4581ZM227.517 52.0258H234.944V59.4581H227.517V52.0258ZM227.517 44.5935H234.944V52.0258H227.517V44.5935ZM227.517 37.1613H234.944V44.5935H227.517V37.1613ZM227.517 29.729H234.944V37.1613H227.517V29.729ZM227.517 22.2968H234.944V29.729H227.517V22.2968ZM227.517 14.8645H234.944V22.2968H227.517V14.8645ZM227.517 7.43225H234.944V14.8645H227.517V7.43225ZM227.517 0H234.944V7.43225H227.517V0ZM182.951 7.43225H190.379V14.8645H182.951V7.43225ZM190.379 14.8645H197.806V22.2968H190.379V14.8645ZM197.806 22.2968H205.234V29.729H197.806V22.2968ZM205.234 14.8645H212.661V22.2968H205.234V14.8645ZM212.661 7.43225H220.089V14.8645H212.661V7.43225Z" fill="black"/>
<path d="M258.672 0H266.099V7.43225H258.672V0ZM251.244 0H258.672V7.43225H251.244V0ZM251.244 7.43225H258.672V14.8645H251.244V7.43225ZM258.672 7.43225H266.099V14.8645H258.672V7.43225ZM266.099 7.43225H273.527V14.8645H266.099V7.43225ZM266.099 0H273.527V7.43225H266.099V0ZM273.527 0H280.955V7.43225H273.527V0ZM280.955 0H288.382V7.43225H280.955V0ZM280.955 7.43225H288.382V14.8645H280.955V7.43225ZM273.527 7.43225H280.955V14.8645H273.527V7.43225ZM273.527 14.8645H280.955V22.2968H273.527V14.8645ZM280.955 14.8645H288.382V22.2968H280.955V14.8645ZM288.382 7.43225H295.81V14.8645H288.382V7.43225ZM288.382 14.8645H295.81V22.2968H288.382V14.8645ZM288.382 22.2968H295.81V29.729H288.382V22.2968ZM288.382 29.729H295.81V37.1613H288.382V29.729ZM288.382 37.1613H295.81V44.5935H288.382V37.1613ZM288.382 44.5935H295.81V52.0258H288.382V44.5935ZM288.382 52.0258H295.81V59.4581H288.382V52.0258ZM288.382 59.4581H295.81V66.8903H288.382V59.4581ZM280.955 59.4581H288.382V66.8903H280.955V59.4581ZM280.955 52.0258H288.382V59.4581H280.955V52.0258ZM280.955 44.5935H288.382V52.0258H280.955V44.5935ZM280.955 37.1613H288.382V44.5935H280.955V37.1613ZM280.955 29.729H288.382V37.1613H280.955V29.729ZM280.955 22.2968H288.382V29.729H280.955V22.2968ZM273.527 52.0258H280.955V59.4581H273.527V52.0258ZM273.527 59.4581H280.955V66.8903H273.527V59.4581ZM280.955 66.8903H288.382V74.3226H280.955V66.8903ZM273.527 66.8903H280.955V74.3226H273.527V66.8903ZM266.099 66.8903H273.527V74.3226H266.099V66.8903ZM266.099 59.4581H273.527V66.8903H266.099V59.4581ZM258.672 66.8903H266.099V74.3226H258.672V66.8903ZM251.244 66.8903H258.672V74.3226H251.244V66.8903ZM251.244 59.4581H258.672V66.8903H251.244V59.4581ZM258.672 59.4581H266.099V66.8903H258.672V59.4581ZM258.672 52.0258H266.099V59.4581H258.672V52.0258ZM251.244 52.0258H258.672V59.4581H251.244V52.0258ZM243.816 59.4581H251.244V66.8903H243.816V59.4581ZM243.816 52.0258H251.244V59.4581H243.816V52.0258ZM243.816 44.5935H251.244V52.0258H243.816V44.5935ZM243.816 37.1613H251.244V44.5935H243.816V37.1613ZM243.816 29.729H251.244V37.1613H243.816V29.729ZM243.816 22.2968H251.244V29.729H243.816V22.2968ZM243.816 14.8645H251.244V22.2968H243.816V14.8645ZM251.244 14.8645H258.672V22.2968H251.244V14.8645ZM243.816 7.43225H251.244V14.8645H243.816V7.43225ZM258.672 14.8645H266.099V22.2968H258.672V14.8645ZM251.244 22.2968H258.672V29.729H251.244V22.2968ZM251.244 29.729H258.672V37.1613H251.244V29.729ZM251.244 37.1613H258.672V44.5935H251.244V37.1613ZM251.244 44.5935H258.672V52.0258H251.244V44.5935Z" fill="black"/>
<path d="M0 0.619353H34.6623V74.3226H0V0.619353Z" fill="#68CEB8"/>
<path d="M1.85691 86.7097H3.71381V88.5677H1.85691V86.7097ZM3.71381 86.7097H5.57072V88.5677H3.71381V86.7097ZM5.57072 86.7097H7.42763V88.5677H5.57072V86.7097ZM7.42763 86.7097H9.28453V88.5677H7.42763V86.7097ZM3.71381 88.5677H5.57072V90.4258H3.71381V88.5677ZM1.85691 88.5677H3.71381V90.4258H1.85691V88.5677ZM5.57072 88.5677H7.42763V90.4258H5.57072V88.5677ZM7.42763 88.5677H9.28453V90.4258H7.42763V88.5677ZM9.28453 90.4258H11.1414V92.2839H9.28453V90.4258ZM11.1414 88.5677H12.9983V90.4258H11.1414V88.5677ZM9.28453 88.5677H11.1414V90.4258H9.28453V88.5677ZM11.1414 90.4258H12.9983V92.2839H11.1414V90.4258ZM9.28453 92.2839H11.1414V94.1419H9.28453V92.2839ZM11.1414 92.2839H12.9983V94.1419H11.1414V92.2839ZM11.1414 94.1419H12.9983V96H11.1414V94.1419ZM9.28453 94.1419H11.1414V96H9.28453V94.1419ZM1.85691 94.1419H3.71381V96H1.85691V94.1419ZM0 94.1419H1.85691V96H0V94.1419ZM0 92.2839H1.85691V94.1419H0V92.2839ZM1.85691 92.2839H3.71381V94.1419H1.85691V92.2839ZM1.85691 90.4258H3.71381V92.2839H1.85691V90.4258ZM0 90.4258H1.85691V92.2839H0V90.4258ZM0 88.5677H1.85691V90.4258H0V88.5677ZM0 86.7097H1.85691V88.5677H0V86.7097ZM0 84.8516H1.85691V86.7097H0V84.8516ZM1.85691 84.8516H3.71381V86.7097H1.85691V84.8516ZM0 77.4194H1.85691V79.2774H0V77.4194ZM1.85691 77.4194H3.71381V79.2774H1.85691V77.4194ZM3.71381 77.4194H5.57072V79.2774H3.71381V77.4194ZM5.57072 77.4194H7.42763V79.2774H5.57072V77.4194ZM7.42763 77.4194H9.28453V79.2774H7.42763V77.4194ZM9.28453 77.4194H11.1414V79.2774H9.28453V77.4194ZM9.28453 79.2774H11.1414V81.1355H9.28453V79.2774ZM7.42763 79.2774H9.28453V81.1355H7.42763V79.2774ZM5.57072 79.2774H7.42763V81.1355H5.57072V79.2774ZM3.71381 79.2774H5.57072V81.1355H3.71381V79.2774ZM1.85691 79.2774H3.71381V81.1355H1.85691V79.2774ZM0 79.2774H1.85691V81.1355H0V79.2774ZM0 81.1355H1.85691V82.9935H0V81.1355ZM0 82.9935H1.85691V84.8516H0V82.9935ZM1.85691 82.9935H3.71381V84.8516H1.85691V82.9935ZM1.85691 81.1355H3.71381V82.9935H1.85691V81.1355ZM9.28453 81.1355H11.1414V82.9935H9.28453V81.1355ZM11.1414 81.1355H12.9983V82.9935H11.1414V81.1355ZM11.1414 79.2774H12.9983V81.1355H11.1414V79.2774ZM11.1414 82.9935H12.9983V84.8516H11.1414V82.9935ZM9.28453 82.9935H11.1414V84.8516H9.28453V82.9935ZM9.28453 84.8516H11.1414V86.7097H9.28453V84.8516ZM11.1414 84.8516H12.9983V86.7097H11.1414V84.8516ZM9.28453 86.7097H11.1414V88.5677H9.28453V86.7097Z" fill="black"/>
<path d="M15.2067 77.4194H17.0636V79.2774H15.2067V77.4194ZM17.0636 77.4194H18.9205V79.2774H17.0636V77.4194ZM17.0636 79.2774H18.9205V81.1355H17.0636V79.2774ZM17.0636 81.1355H18.9205V82.9935H17.0636V81.1355ZM17.0636 82.9935H18.9205V84.8516H17.0636V82.9935ZM15.2067 82.9935H17.0636V84.8516H15.2067V82.9935ZM15.2067 81.1355H17.0636V82.9935H15.2067V81.1355ZM15.2067 79.2774H17.0636V81.1355H15.2067V79.2774ZM15.2067 84.8516H17.0636V86.7097H15.2067V84.8516ZM15.2067 86.7097H17.0636V88.5677H15.2067V86.7097ZM15.2067 88.5677H17.0636V90.4258H15.2067V88.5677ZM17.0636 86.7097H18.9205V88.5677H17.0636V86.7097ZM17.0636 84.8516H18.9205V86.7097H17.0636V84.8516ZM17.0636 88.5677H18.9205V90.4258H17.0636V88.5677ZM17.0636 90.4258H18.9205V92.2839H17.0636V90.4258ZM15.2067 92.2839H17.0636V94.1419H15.2067V92.2839ZM15.2067 90.4258H17.0636V92.2839H15.2067V90.4258ZM15.2067 94.1419H17.0636V96H15.2067V94.1419ZM17.0636 94.1419H18.9205V96H17.0636V94.1419ZM17.0636 92.2839H18.9205V94.1419H17.0636V92.2839ZM18.9205 94.1419H20.7774V96H18.9205V94.1419ZM20.7774 94.1419H22.6343V96H20.7774V94.1419ZM22.6343 94.1419H24.4912V96H22.6343V94.1419ZM22.6343 92.2839H24.4912V94.1419H22.6343V92.2839ZM20.7774 92.2839H22.6343V94.1419H20.7774V92.2839ZM18.9205 92.2839H20.7774V94.1419H18.9205V92.2839ZM18.9205 77.4194H20.7774V79.2774H18.9205V77.4194ZM20.7774 77.4194H22.6343V79.2774H20.7774V77.4194ZM22.6343 77.4194H24.4912V79.2774H22.6343V77.4194ZM24.4912 77.4194H26.3481V79.2774H24.4912V77.4194ZM22.6343 79.2774H24.4912V81.1355H22.6343V79.2774ZM20.7774 79.2774H22.6343V81.1355H20.7774V79.2774ZM18.9205 79.2774H20.7774V81.1355H18.9205V79.2774ZM18.9205 86.7097H20.7774V88.5677H18.9205V86.7097ZM20.7774 84.8516H22.6343V86.7097H20.7774V84.8516ZM18.9205 84.8516H20.7774V86.7097H18.9205V84.8516ZM20.7774 86.7097H22.6343V88.5677H20.7774V86.7097ZM24.4912 79.2774H26.3481V81.1355H24.4912V79.2774ZM24.4912 92.2839H26.3481V94.1419H24.4912V92.2839ZM24.4912 94.1419H26.3481V96H24.4912V94.1419ZM22.6343 84.8516H24.4912V86.7097H22.6343V84.8516ZM22.6343 86.7097H24.4912V88.5677H22.6343V86.7097Z" fill="black"/>
<path d="M34.1224 86.7097H35.9793V88.5677H34.1224V86.7097ZM34.1224 84.8516H35.9793V86.7097H34.1224V84.8516ZM35.9793 84.8516H37.8362V86.7097H35.9793V84.8516ZM35.9793 86.7097H37.8362V88.5677H35.9793V86.7097ZM35.9793 88.5677H37.8362V90.4258H35.9793V88.5677ZM34.1224 88.5677H35.9793V90.4258H34.1224V88.5677ZM34.1224 81.1355H35.9793V82.9935H34.1224V81.1355ZM34.1224 82.9935H35.9793V84.8516H34.1224V82.9935ZM32.2655 84.8516H34.1224V86.7097H32.2655V84.8516ZM32.2655 82.9935H34.1224V84.8516H32.2655V82.9935ZM32.2655 81.1355H34.1224V82.9935H32.2655V81.1355ZM28.5517 77.4194H30.4086V79.2774H28.5517V77.4194ZM30.4086 77.4194H32.2655V79.2774H30.4086V77.4194ZM32.2655 77.4194H34.1224V79.2774H32.2655V77.4194ZM32.2655 79.2774H34.1224V81.1355H32.2655V79.2774ZM30.4086 79.2774H32.2655V81.1355H30.4086V79.2774ZM28.5517 79.2774H30.4086V81.1355H28.5517V79.2774ZM28.5517 81.1355H30.4086V82.9935H28.5517V81.1355ZM30.4086 81.1355H32.2655V82.9935H30.4086V81.1355ZM30.4086 82.9935H32.2655V84.8516H30.4086V82.9935ZM30.4086 84.8516H32.2655V86.7097H30.4086V84.8516ZM28.5517 84.8516H30.4086V86.7097H28.5517V84.8516ZM28.5517 82.9935H30.4086V84.8516H28.5517V82.9935ZM28.5517 86.7097H30.4086V88.5677H28.5517V86.7097ZM30.4086 86.7097H32.2655V88.5677H30.4086V86.7097ZM30.4086 88.5677H32.2655V90.4258H30.4086V88.5677ZM30.4086 90.4258H32.2655V92.2839H30.4086V90.4258ZM30.4086 92.2839H32.2655V94.1419H30.4086V92.2839ZM30.4086 94.1419H32.2655V96H30.4086V94.1419ZM28.5517 94.1419H30.4086V96H28.5517V94.1419ZM28.5517 92.2839H30.4086V94.1419H28.5517V92.2839ZM28.5517 90.4258H30.4086V92.2839H28.5517V90.4258ZM28.5517 88.5677H30.4086V90.4258H28.5517V88.5677ZM35.9793 90.4258H37.8362V92.2839H35.9793V90.4258ZM35.9793 92.2839H37.8362V94.1419H35.9793V92.2839ZM37.8362 90.4258H39.6931V92.2839H37.8362V90.4258ZM37.8362 88.5677H39.6931V90.4258H37.8362V88.5677ZM37.8362 92.2839H39.6931V94.1419H37.8362V92.2839ZM37.8362 94.1419H39.6931V96H37.8362V94.1419ZM39.6931 94.1419H41.55V96H39.6931V94.1419ZM41.55 94.1419H43.4069V96H41.55V94.1419ZM41.55 92.2839H43.4069V94.1419H41.55V92.2839ZM41.55 90.4258H43.4069V92.2839H41.55V90.4258ZM39.6931 90.4258H41.55V92.2839H39.6931V90.4258ZM39.6931 92.2839H41.55V94.1419H39.6931V92.2839ZM39.6931 88.5677H41.55V90.4258H39.6931V88.5677ZM41.55 86.7097H43.4069V88.5677H41.55V86.7097ZM41.55 84.8516H43.4069V86.7097H41.55V84.8516ZM41.55 88.5677H43.4069V90.4258H41.55V88.5677ZM39.6931 86.7097H41.55V88.5677H39.6931V86.7097ZM39.6931 84.8516H41.55V86.7097H39.6931V84.8516ZM39.6931 82.9935H41.55V84.8516H39.6931V82.9935ZM41.55 82.9935H43.4069V84.8516H41.55V82.9935ZM41.55 81.1355H43.4069V82.9935H41.55V81.1355ZM39.6931 77.4194H41.55V79.2774H39.6931V77.4194ZM41.55 77.4194H43.4069V79.2774H41.55V77.4194ZM41.55 79.2774H43.4069V81.1355H41.55V79.2774ZM39.6931 79.2774H41.55V81.1355H39.6931V79.2774ZM39.6931 81.1355H41.55V82.9935H39.6931V81.1355Z" fill="black"/>
<path d="M45.6201 77.4194H47.477V79.2774H45.6201V77.4194ZM47.477 77.4194H49.3339V79.2774H47.477V77.4194ZM49.3339 77.4194H51.1908V79.2774H49.3339V77.4194ZM51.1908 77.4194H53.0478V79.2774H51.1908V77.4194ZM53.0478 77.4194H54.9047V79.2774H53.0478V77.4194ZM54.9047 77.4194H56.7616V79.2774H54.9047V77.4194ZM54.9047 79.2774H56.7616V81.1355H54.9047V79.2774ZM53.0478 79.2774H54.9047V81.1355H53.0478V79.2774ZM51.1908 79.2774H53.0478V81.1355H51.1908V79.2774ZM49.3339 79.2774H51.1908V81.1355H49.3339V79.2774ZM47.477 79.2774H49.3339V81.1355H47.477V79.2774ZM45.6201 79.2774H47.477V81.1355H45.6201V79.2774ZM49.3339 81.1355H51.1908V82.9935H49.3339V81.1355ZM49.3339 82.9935H51.1908V84.8516H49.3339V82.9935ZM49.3339 84.8516H51.1908V86.7097H49.3339V84.8516ZM49.3339 86.7097H51.1908V88.5677H49.3339V86.7097ZM49.3339 88.5677H51.1908V90.4258H49.3339V88.5677ZM49.3339 90.4258H51.1908V92.2839H49.3339V90.4258ZM51.1908 88.5677H53.0478V90.4258H51.1908V88.5677ZM51.1908 86.7097H53.0478V88.5677H51.1908V86.7097ZM51.1908 84.8516H53.0478V86.7097H51.1908V84.8516ZM51.1908 82.9935H53.0478V84.8516H51.1908V82.9935ZM51.1908 81.1355H53.0478V82.9935H51.1908V81.1355ZM51.1908 90.4258H53.0478V92.2839H51.1908V90.4258ZM51.1908 92.2839H53.0478V94.1419H51.1908V92.2839ZM51.1908 94.1419H53.0478V96H51.1908V94.1419ZM49.3339 94.1419H51.1908V96H49.3339V94.1419ZM49.3339 92.2839H51.1908V94.1419H49.3339V92.2839Z" fill="black"/>
<path d="M68.5817 86.7097H70.4387V88.5677H68.5817V86.7097ZM70.4387 86.7097H72.2956V88.5677H70.4387V86.7097ZM72.2956 86.7097H74.1525V88.5677H72.2956V86.7097ZM74.1525 86.7097H76.0094V88.5677H74.1525V86.7097ZM70.4387 88.5677H72.2956V90.4258H70.4387V88.5677ZM68.5817 88.5677H70.4387V90.4258H68.5817V88.5677ZM72.2956 88.5677H74.1525V90.4258H72.2956V88.5677ZM74.1525 88.5677H76.0094V90.4258H74.1525V88.5677ZM76.0094 90.4258H77.8663V92.2839H76.0094V90.4258ZM77.8663 88.5677H79.7232V90.4258H77.8663V88.5677ZM76.0094 88.5677H77.8663V90.4258H76.0094V88.5677ZM77.8663 90.4258H79.7232V92.2839H77.8663V90.4258ZM76.0094 92.2839H77.8663V94.1419H76.0094V92.2839ZM77.8663 92.2839H79.7232V94.1419H77.8663V92.2839ZM77.8663 94.1419H79.7232V96H77.8663V94.1419ZM76.0094 94.1419H77.8663V96H76.0094V94.1419ZM68.5817 94.1419H70.4387V96H68.5817V94.1419ZM66.7248 94.1419H68.5817V96H66.7248V94.1419ZM66.7248 92.2839H68.5817V94.1419H66.7248V92.2839ZM68.5817 92.2839H70.4387V94.1419H68.5817V92.2839ZM68.5817 90.4258H70.4387V92.2839H68.5817V90.4258ZM66.7248 90.4258H68.5817V92.2839H66.7248V90.4258ZM66.7248 88.5677H68.5817V90.4258H66.7248V88.5677ZM66.7248 86.7097H68.5817V88.5677H66.7248V86.7097ZM66.7248 84.8516H68.5817V86.7097H66.7248V84.8516ZM68.5817 84.8516H70.4387V86.7097H68.5817V84.8516ZM66.7248 77.4194H68.5817V79.2774H66.7248V77.4194ZM68.5817 77.4194H70.4387V79.2774H68.5817V77.4194ZM70.4387 77.4194H72.2956V79.2774H70.4387V77.4194ZM72.2956 77.4194H74.1525V79.2774H72.2956V77.4194ZM74.1525 77.4194H76.0094V79.2774H74.1525V77.4194ZM76.0094 77.4194H77.8663V79.2774H76.0094V77.4194ZM76.0094 79.2774H77.8663V81.1355H76.0094V79.2774ZM74.1525 79.2774H76.0094V81.1355H74.1525V79.2774ZM72.2956 79.2774H74.1525V81.1355H72.2956V79.2774ZM70.4387 79.2774H72.2956V81.1355H70.4387V79.2774ZM68.5817 79.2774H70.4387V81.1355H68.5817V79.2774ZM66.7248 79.2774H68.5817V81.1355H66.7248V79.2774ZM66.7248 81.1355H68.5817V82.9935H66.7248V81.1355ZM66.7248 82.9935H68.5817V84.8516H66.7248V82.9935ZM68.5817 82.9935H70.4387V84.8516H68.5817V82.9935ZM68.5817 81.1355H70.4387V82.9935H68.5817V81.1355ZM76.0094 81.1355H77.8663V82.9935H76.0094V81.1355ZM77.8663 81.1355H79.7232V82.9935H77.8663V81.1355ZM77.8663 79.2774H79.7232V81.1355H77.8663V79.2774ZM77.8663 82.9935H79.7232V84.8516H77.8663V82.9935ZM76.0094 82.9935H77.8663V84.8516H76.0094V82.9935ZM76.0094 84.8516H77.8663V86.7097H76.0094V84.8516ZM77.8663 84.8516H79.7232V86.7097H77.8663V84.8516ZM76.0094 86.7097H77.8663V88.5677H76.0094V86.7097Z" fill="black"/>
<path d="M81.9315 77.4194H83.7885V79.2774H81.9315V77.4194ZM83.7885 77.4194H85.6454V79.2774H83.7885V77.4194ZM83.7885 79.2774H85.6454V81.1355H83.7885V79.2774ZM83.7885 81.1355H85.6454V82.9935H83.7885V81.1355ZM83.7885 82.9935H85.6454V84.8516H83.7885V82.9935ZM81.9315 82.9935H83.7885V84.8516H81.9315V82.9935ZM81.9315 81.1355H83.7885V82.9935H81.9315V81.1355ZM81.9315 79.2774H83.7885V81.1355H81.9315V79.2774ZM81.9315 84.8516H83.7885V86.7097H81.9315V84.8516ZM81.9315 86.7097H83.7885V88.5677H81.9315V86.7097ZM81.9315 88.5677H83.7885V90.4258H81.9315V88.5677ZM83.7885 86.7097H85.6454V88.5677H83.7885V86.7097ZM83.7885 84.8516H85.6454V86.7097H83.7885V84.8516ZM83.7885 88.5677H85.6454V90.4258H83.7885V88.5677ZM83.7885 90.4258H85.6454V92.2839H83.7885V90.4258ZM81.9315 92.2839H83.7885V94.1419H81.9315V92.2839ZM81.9315 90.4258H83.7885V92.2839H81.9315V90.4258ZM81.9315 94.1419H83.7885V96H81.9315V94.1419ZM83.7885 94.1419H85.6454V96H83.7885V94.1419ZM83.7885 92.2839H85.6454V94.1419H83.7885V92.2839ZM85.6454 94.1419H87.5023V96H85.6454V94.1419ZM87.5023 94.1419H89.3592V96H87.5023V94.1419ZM89.3592 94.1419H91.2161V96H89.3592V94.1419ZM89.3592 92.2839H91.2161V94.1419H89.3592V92.2839ZM87.5023 92.2839H89.3592V94.1419H87.5023V92.2839ZM85.6454 92.2839H87.5023V94.1419H85.6454V92.2839ZM85.6454 77.4194H87.5023V79.2774H85.6454V77.4194ZM87.5023 77.4194H89.3592V79.2774H87.5023V77.4194ZM89.3592 77.4194H91.2161V79.2774H89.3592V77.4194ZM91.2161 77.4194H93.073V79.2774H91.2161V77.4194ZM89.3592 79.2774H91.2161V81.1355H89.3592V79.2774ZM87.5023 79.2774H89.3592V81.1355H87.5023V79.2774ZM85.6454 79.2774H87.5023V81.1355H85.6454V79.2774ZM85.6454 86.7097H87.5023V88.5677H85.6454V86.7097ZM87.5023 84.8516H89.3592V86.7097H87.5023V84.8516ZM85.6454 84.8516H87.5023V86.7097H85.6454V84.8516ZM87.5023 86.7097H89.3592V88.5677H87.5023V86.7097ZM91.2161 79.2774H93.073V81.1355H91.2161V79.2774ZM91.2161 92.2839H93.073V94.1419H91.2161V92.2839ZM91.2161 94.1419H93.073V96H91.2161V94.1419ZM89.3592 84.8516H91.2161V86.7097H89.3592V84.8516ZM89.3592 86.7097H91.2161V88.5677H89.3592V86.7097Z" fill="black"/>
<path d="M98.9903 77.4194H100.847V79.2774H98.9903V77.4194ZM97.1334 77.4194H98.9903V79.2774H97.1334V77.4194ZM97.1334 79.2774H98.9903V81.1355H97.1334V79.2774ZM98.9903 79.2774H100.847V81.1355H98.9903V79.2774ZM100.847 79.2774H102.704V81.1355H100.847V79.2774ZM100.847 77.4194H102.704V79.2774H100.847V77.4194ZM102.704 77.4194H104.561V79.2774H102.704V77.4194ZM104.561 77.4194H106.418V79.2774H104.561V77.4194ZM104.561 79.2774H106.418V81.1355H104.561V79.2774ZM102.704 79.2774H104.561V81.1355H102.704V79.2774ZM104.561 81.1355H106.418V82.9935H104.561V81.1355ZM106.418 79.2774H108.275V81.1355H106.418V79.2774ZM106.418 81.1355H108.275V82.9935H106.418V81.1355ZM106.418 90.4258H108.275V92.2839H106.418V90.4258ZM106.418 92.2839H108.275V94.1419H106.418V92.2839ZM104.561 92.2839H106.418V94.1419H104.561V92.2839ZM104.561 90.4258H106.418V92.2839H104.561V90.4258ZM102.704 92.2839H104.561V94.1419H102.704V92.2839ZM104.561 94.1419H106.418V96H104.561V94.1419ZM102.704 94.1419H104.561V96H102.704V94.1419ZM100.847 94.1419H102.704V96H100.847V94.1419ZM100.847 92.2839H102.704V94.1419H100.847V92.2839ZM98.9903 94.1419H100.847V96H98.9903V94.1419ZM97.1334 94.1419H98.9903V96H97.1334V94.1419ZM97.1334 92.2839H98.9903V94.1419H97.1334V92.2839ZM98.9903 92.2839H100.847V94.1419H98.9903V92.2839ZM98.9903 90.4258H100.847V92.2839H98.9903V90.4258ZM97.1334 90.4258H98.9903V92.2839H97.1334V90.4258ZM95.2765 92.2839H97.1334V94.1419H95.2765V92.2839ZM95.2765 90.4258H97.1334V92.2839H95.2765V90.4258ZM95.2765 88.5677H97.1334V90.4258H95.2765V88.5677ZM95.2765 86.7097H97.1334V88.5677H95.2765V86.7097ZM95.2765 84.8516H97.1334V86.7097H95.2765V84.8516ZM95.2765 82.9935H97.1334V84.8516H95.2765V82.9935ZM95.2765 81.1355H97.1334V82.9935H95.2765V81.1355ZM97.1334 81.1355H98.9903V82.9935H97.1334V81.1355ZM95.2765 79.2774H97.1334V81.1355H95.2765V79.2774ZM98.9903 81.1355H100.847V82.9935H98.9903V81.1355ZM97.1334 82.9935H98.9903V84.8516H97.1334V82.9935ZM97.1334 84.8516H98.9903V86.7097H97.1334V84.8516ZM97.1334 86.7097H98.9903V88.5677H97.1334V86.7097ZM97.1334 88.5677H98.9903V90.4258H97.1334V88.5677Z" fill="black"/>
<path d="M110.483 94.1419H112.34V96H110.483V94.1419ZM112.34 94.1419H114.197V96H112.34V94.1419ZM112.34 92.2839H114.197V94.1419H112.34V92.2839ZM112.34 90.4258H114.197V92.2839H112.34V90.4258ZM112.34 88.5677H114.197V90.4258H112.34V88.5677ZM112.34 86.7097H114.197V88.5677H112.34V86.7097ZM112.34 84.8516H114.197V86.7097H112.34V84.8516ZM110.483 84.8516H112.34V86.7097H110.483V84.8516ZM110.483 86.7097H112.34V88.5677H110.483V86.7097ZM110.483 88.5677H112.34V90.4258H110.483V88.5677ZM110.483 90.4258H112.34V92.2839H110.483V90.4258ZM110.483 92.2839H112.34V94.1419H110.483V92.2839ZM110.483 82.9935H112.34V84.8516H110.483V82.9935ZM112.34 82.9935H114.197V84.8516H112.34V82.9935ZM112.34 81.1355H114.197V82.9935H112.34V81.1355ZM112.34 79.2774H114.197V81.1355H112.34V79.2774ZM112.34 77.4194H114.197V79.2774H112.34V77.4194ZM110.483 77.4194H112.34V79.2774H110.483V77.4194ZM110.483 79.2774H112.34V81.1355H110.483V79.2774ZM110.483 81.1355H112.34V82.9935H110.483V81.1355Z" fill="black"/>
<path d="M116.415 77.4194H118.272V79.2774H116.415V77.4194ZM118.272 77.4194H120.129V79.2774H118.272V77.4194ZM118.272 79.2774H120.129V81.1355H118.272V79.2774ZM118.272 81.1355H120.129V82.9935H118.272V81.1355ZM118.272 82.9935H120.129V84.8516H118.272V82.9935ZM116.415 82.9935H118.272V84.8516H116.415V82.9935ZM116.415 81.1355H118.272V82.9935H116.415V81.1355ZM116.415 79.2774H118.272V81.1355H116.415V79.2774ZM116.415 84.8516H118.272V86.7097H116.415V84.8516ZM116.415 86.7097H118.272V88.5677H116.415V86.7097ZM116.415 88.5677H118.272V90.4258H116.415V88.5677ZM118.272 86.7097H120.129V88.5677H118.272V86.7097ZM118.272 84.8516H120.129V86.7097H118.272V84.8516ZM118.272 88.5677H120.129V90.4258H118.272V88.5677ZM118.272 90.4258H120.129V92.2839H118.272V90.4258ZM116.415 92.2839H118.272V94.1419H116.415V92.2839ZM116.415 90.4258H118.272V92.2839H116.415V90.4258ZM116.415 94.1419H118.272V96H116.415V94.1419ZM118.272 94.1419H120.129V96H118.272V94.1419ZM118.272 92.2839H120.129V94.1419H118.272V92.2839ZM120.129 94.1419H121.986V96H120.129V94.1419ZM121.986 94.1419H123.843V96H121.986V94.1419ZM123.843 94.1419H125.7V96H123.843V94.1419ZM123.843 92.2839H125.7V94.1419H123.843V92.2839ZM121.986 92.2839H123.843V94.1419H121.986V92.2839ZM120.129 92.2839H121.986V94.1419H120.129V92.2839ZM120.129 77.4194H121.986V79.2774H120.129V77.4194ZM121.986 77.4194H123.843V79.2774H121.986V77.4194ZM123.843 77.4194H125.7V79.2774H123.843V77.4194ZM125.7 77.4194H127.557V79.2774H125.7V77.4194ZM123.843 79.2774H125.7V81.1355H123.843V79.2774ZM121.986 79.2774H123.843V81.1355H121.986V79.2774ZM120.129 79.2774H121.986V81.1355H120.129V79.2774ZM120.129 86.7097H121.986V88.5677H120.129V86.7097ZM121.986 84.8516H123.843V86.7097H121.986V84.8516ZM120.129 84.8516H121.986V86.7097H120.129V84.8516ZM121.986 86.7097H123.843V88.5677H121.986V86.7097ZM125.7 79.2774H127.557V81.1355H125.7V79.2774ZM125.7 92.2839H127.557V94.1419H125.7V92.2839ZM125.7 94.1419H127.557V96H125.7V94.1419ZM123.843 84.8516H125.7V86.7097H123.843V84.8516ZM123.843 86.7097H125.7V88.5677H123.843V86.7097Z" fill="black"/>
<path d="M129.76 77.4194H131.617V79.2774H129.76V77.4194ZM131.617 77.4194H133.474V79.2774H131.617V77.4194ZM133.474 77.4194H135.331V79.2774H133.474V77.4194ZM135.331 77.4194H137.188V79.2774H135.331V77.4194ZM137.188 77.4194H139.045V79.2774H137.188V77.4194ZM139.045 77.4194H140.901V79.2774H139.045V77.4194ZM139.045 79.2774H140.901V81.1355H139.045V79.2774ZM137.188 79.2774H139.045V81.1355H137.188V79.2774ZM135.331 79.2774H137.188V81.1355H135.331V79.2774ZM133.474 79.2774H135.331V81.1355H133.474V79.2774ZM131.617 79.2774H133.474V81.1355H131.617V79.2774ZM129.76 79.2774H131.617V81.1355H129.76V79.2774ZM140.901 79.2774H142.758V81.1355H140.901V79.2774ZM139.045 81.1355H140.901V82.9935H139.045V81.1355ZM140.901 81.1355H142.758V82.9935H140.901V81.1355ZM140.901 82.9935H142.758V84.8516H140.901V82.9935ZM140.901 84.8516H142.758V86.7097H140.901V84.8516ZM139.045 84.8516H140.901V86.7097H139.045V84.8516ZM139.045 82.9935H140.901V84.8516H139.045V82.9935ZM139.045 86.7097H140.901V88.5677H139.045V86.7097ZM139.045 88.5677H140.901V90.4258H139.045V88.5677ZM137.188 88.5677H139.045V90.4258H137.188V88.5677ZM137.188 86.7097H139.045V88.5677H137.188V86.7097ZM135.331 86.7097H137.188V88.5677H135.331V86.7097ZM135.331 88.5677H137.188V90.4258H135.331V88.5677ZM133.474 88.5677H135.331V90.4258H133.474V88.5677ZM133.474 86.7097H135.331V88.5677H133.474V86.7097ZM131.617 86.7097H133.474V88.5677H131.617V86.7097ZM129.76 86.7097H131.617V88.5677H129.76V86.7097ZM129.76 88.5677H131.617V90.4258H129.76V88.5677ZM131.617 88.5677H133.474V90.4258H131.617V88.5677ZM129.76 81.1355H131.617V82.9935H129.76V81.1355ZM131.617 81.1355H133.474V82.9935H131.617V81.1355ZM131.617 82.9935H133.474V84.8516H131.617V82.9935ZM131.617 84.8516H133.474V86.7097H131.617V84.8516ZM129.76 82.9935H131.617V84.8516H129.76V82.9935ZM129.76 84.8516H131.617V86.7097H129.76V84.8516ZM129.76 90.4258H131.617V92.2839H129.76V90.4258ZM131.617 90.4258H133.474V92.2839H131.617V90.4258ZM131.617 92.2839H133.474V94.1419H131.617V92.2839ZM131.617 94.1419H133.474V96H131.617V94.1419ZM129.76 94.1419H131.617V96H129.76V94.1419ZM129.76 92.2839H131.617V94.1419H129.76V92.2839ZM140.901 86.7097H142.758V88.5677H140.901V86.7097Z" fill="black"/>
<path d="M144.967 77.4194H146.824V79.2774H144.967V77.4194ZM146.824 77.4194H148.681V79.2774H146.824V77.4194ZM148.681 77.4194H150.537V79.2774H148.681V77.4194ZM150.537 77.4194H152.394V79.2774H150.537V77.4194ZM152.394 77.4194H154.251V79.2774H152.394V77.4194ZM154.251 77.4194H156.108V79.2774H154.251V77.4194ZM154.251 79.2774H156.108V81.1355H154.251V79.2774ZM152.394 79.2774H154.251V81.1355H152.394V79.2774ZM150.537 79.2774H152.394V81.1355H150.537V79.2774ZM148.681 79.2774H150.537V81.1355H148.681V79.2774ZM146.824 79.2774H148.681V81.1355H146.824V79.2774ZM144.967 79.2774H146.824V81.1355H144.967V79.2774ZM148.681 81.1355H150.537V82.9935H148.681V81.1355ZM148.681 82.9935H150.537V84.8516H148.681V82.9935ZM148.681 84.8516H150.537V86.7097H148.681V84.8516ZM148.681 86.7097H150.537V88.5677H148.681V86.7097ZM148.681 88.5677H150.537V90.4258H148.681V88.5677ZM148.681 90.4258H150.537V92.2839H148.681V90.4258ZM150.537 88.5677H152.394V90.4258H150.537V88.5677ZM150.537 86.7097H152.394V88.5677H150.537V86.7097ZM150.537 84.8516H152.394V86.7097H150.537V84.8516ZM150.537 82.9935H152.394V84.8516H150.537V82.9935ZM150.537 81.1355H152.394V82.9935H150.537V81.1355ZM150.537 90.4258H152.394V92.2839H150.537V90.4258ZM150.537 92.2839H152.394V94.1419H150.537V92.2839ZM150.537 94.1419H152.394V96H150.537V94.1419ZM148.681 94.1419H150.537V96H148.681V94.1419ZM148.681 92.2839H150.537V94.1419H148.681V92.2839Z" fill="black"/>
<path d="M169.785 77.4194H171.642V79.2774H169.785V77.4194ZM167.928 77.4194H169.785V79.2774H167.928V77.4194ZM167.928 79.2774H169.785V81.1355H167.928V79.2774ZM169.785 79.2774H171.642V81.1355H169.785V79.2774ZM171.642 79.2774H173.499V81.1355H171.642V79.2774ZM171.642 77.4194H173.499V79.2774H171.642V77.4194ZM173.499 77.4194H175.356V79.2774H173.499V77.4194ZM175.356 77.4194H177.213V79.2774H175.356V77.4194ZM175.356 79.2774H177.213V81.1355H175.356V79.2774ZM173.499 79.2774H175.356V81.1355H173.499V79.2774ZM175.356 81.1355H177.213V82.9935H175.356V81.1355ZM177.213 79.2774H179.07V81.1355H177.213V79.2774ZM177.213 81.1355H179.07V82.9935H177.213V81.1355ZM177.213 90.4258H179.07V92.2839H177.213V90.4258ZM177.213 92.2839H179.07V94.1419H177.213V92.2839ZM175.356 92.2839H177.213V94.1419H175.356V92.2839ZM175.356 90.4258H177.213V92.2839H175.356V90.4258ZM173.499 92.2839H175.356V94.1419H173.499V92.2839ZM175.356 94.1419H177.213V96H175.356V94.1419ZM173.499 94.1419H175.356V96H173.499V94.1419ZM171.642 94.1419H173.499V96H171.642V94.1419ZM171.642 92.2839H173.499V94.1419H171.642V92.2839ZM169.785 94.1419H171.642V96H169.785V94.1419ZM167.928 94.1419H169.785V96H167.928V94.1419ZM167.928 92.2839H169.785V94.1419H167.928V92.2839ZM169.785 92.2839H171.642V94.1419H169.785V92.2839ZM169.785 90.4258H171.642V92.2839H169.785V90.4258ZM167.928 90.4258H169.785V92.2839H167.928V90.4258ZM166.071 92.2839H167.928V94.1419H166.071V92.2839ZM166.071 90.4258H167.928V92.2839H166.071V90.4258ZM166.071 88.5677H167.928V90.4258H166.071V88.5677ZM166.071 86.7097H167.928V88.5677H166.071V86.7097ZM166.071 84.8516H167.928V86.7097H166.071V84.8516ZM166.071 82.9935H167.928V84.8516H166.071V82.9935ZM166.071 81.1355H167.928V82.9935H166.071V81.1355ZM167.928 81.1355H169.785V82.9935H167.928V81.1355ZM166.071 79.2774H167.928V81.1355H166.071V79.2774ZM169.785 81.1355H171.642V82.9935H169.785V81.1355ZM167.928 82.9935H169.785V84.8516H167.928V82.9935ZM167.928 84.8516H169.785V86.7097H167.928V84.8516ZM167.928 86.7097H169.785V88.5677H167.928V86.7097ZM167.928 88.5677H169.785V90.4258H167.928V88.5677ZM177.213 88.5677H179.07V90.4258H177.213V88.5677ZM175.356 88.5677H177.213V90.4258H175.356V88.5677ZM175.356 86.7097H177.213V88.5677H175.356V86.7097ZM177.213 86.7097H179.07V88.5677H177.213V86.7097ZM177.213 84.8516H179.07V86.7097H177.213V84.8516ZM175.356 84.8516H177.213V86.7097H175.356V84.8516ZM173.499 84.8516H175.356V86.7097H173.499V84.8516ZM171.642 84.8516H173.499V86.7097H171.642V84.8516ZM171.642 86.7097H173.499V88.5677H171.642V86.7097ZM173.499 86.7097H175.356V88.5677H173.499V86.7097Z" fill="black"/>
<path d="M181.278 77.4194H183.135V79.2774H181.278V77.4194ZM183.135 77.4194H184.992V79.2774H183.135V77.4194ZM183.135 79.2774H184.992V81.1355H183.135V79.2774ZM183.135 81.1355H184.992V82.9935H183.135V81.1355ZM183.135 82.9935H184.992V84.8516H183.135V82.9935ZM181.278 82.9935H183.135V84.8516H181.278V82.9935ZM181.278 81.1355H183.135V82.9935H181.278V81.1355ZM181.278 79.2774H183.135V81.1355H181.278V79.2774ZM181.278 84.8516H183.135V86.7097H181.278V84.8516ZM181.278 86.7097H183.135V88.5677H181.278V86.7097ZM181.278 88.5677H183.135V90.4258H181.278V88.5677ZM183.135 86.7097H184.992V88.5677H183.135V86.7097ZM183.135 84.8516H184.992V86.7097H183.135V84.8516ZM183.135 88.5677H184.992V90.4258H183.135V88.5677ZM183.135 90.4258H184.992V92.2839H183.135V90.4258ZM181.278 92.2839H183.135V94.1419H181.278V92.2839ZM181.278 90.4258H183.135V92.2839H181.278V90.4258ZM181.278 94.1419H183.135V96H181.278V94.1419ZM183.135 94.1419H184.992V96H183.135V94.1419ZM183.135 92.2839H184.992V94.1419H183.135V92.2839ZM184.992 94.1419H186.849V96H184.992V94.1419ZM186.849 94.1419H188.706V96H186.849V94.1419ZM188.706 94.1419H190.563V96H188.706V94.1419ZM188.706 92.2839H190.563V94.1419H188.706V92.2839ZM186.849 92.2839H188.706V94.1419H186.849V92.2839ZM184.992 92.2839H186.849V94.1419H184.992V92.2839ZM184.992 77.4194H186.849V79.2774H184.992V77.4194ZM186.849 77.4194H188.706V79.2774H186.849V77.4194ZM188.706 77.4194H190.563V79.2774H188.706V77.4194ZM190.563 77.4194H192.42V79.2774H190.563V77.4194ZM188.706 79.2774H190.563V81.1355H188.706V79.2774ZM186.849 79.2774H188.706V81.1355H186.849V79.2774ZM184.992 79.2774H186.849V81.1355H184.992V79.2774ZM184.992 86.7097H186.849V88.5677H184.992V86.7097ZM186.849 84.8516H188.706V86.7097H186.849V84.8516ZM184.992 84.8516H186.849V86.7097H184.992V84.8516ZM186.849 86.7097H188.706V88.5677H186.849V86.7097ZM190.563 79.2774H192.42V81.1355H190.563V79.2774ZM190.563 92.2839H192.42V94.1419H190.563V92.2839ZM190.563 94.1419H192.42V96H190.563V94.1419ZM188.706 84.8516H190.563V86.7097H188.706V84.8516ZM188.706 86.7097H190.563V88.5677H188.706V86.7097Z" fill="black"/>
<path d="M200.194 86.7097H202.051V88.5677H200.194V86.7097ZM200.194 84.8516H202.051V86.7097H200.194V84.8516ZM202.051 84.8516H203.908V86.7097H202.051V84.8516ZM202.051 86.7097H203.908V88.5677H202.051V86.7097ZM202.051 88.5677H203.908V90.4258H202.051V88.5677ZM200.194 88.5677H202.051V90.4258H200.194V88.5677ZM200.194 81.1355H202.051V82.9935H200.194V81.1355ZM200.194 82.9935H202.051V84.8516H200.194V82.9935ZM198.337 84.8516H200.194V86.7097H198.337V84.8516ZM198.337 82.9935H200.194V84.8516H198.337V82.9935ZM198.337 81.1355H200.194V82.9935H198.337V81.1355ZM194.623 77.4194H196.48V79.2774H194.623V77.4194ZM196.48 77.4194H198.337V79.2774H196.48V77.4194ZM198.337 77.4194H200.194V79.2774H198.337V77.4194ZM198.337 79.2774H200.194V81.1355H198.337V79.2774ZM196.48 79.2774H198.337V81.1355H196.48V79.2774ZM194.623 79.2774H196.48V81.1355H194.623V79.2774ZM194.623 81.1355H196.48V82.9935H194.623V81.1355ZM196.48 81.1355H198.337V82.9935H196.48V81.1355ZM196.48 82.9935H198.337V84.8516H196.48V82.9935ZM196.48 84.8516H198.337V86.7097H196.48V84.8516ZM194.623 84.8516H196.48V86.7097H194.623V84.8516ZM194.623 82.9935H196.48V84.8516H194.623V82.9935ZM194.623 86.7097H196.48V88.5677H194.623V86.7097ZM196.48 86.7097H198.337V88.5677H196.48V86.7097ZM196.48 88.5677H198.337V90.4258H196.48V88.5677ZM196.48 90.4258H198.337V92.2839H196.48V90.4258ZM196.48 92.2839H198.337V94.1419H196.48V92.2839ZM196.48 94.1419H198.337V96H196.48V94.1419ZM194.623 94.1419H196.48V96H194.623V94.1419ZM194.623 92.2839H196.48V94.1419H194.623V92.2839ZM194.623 90.4258H196.48V92.2839H194.623V90.4258ZM194.623 88.5677H196.48V90.4258H194.623V88.5677ZM202.051 90.4258H203.908V92.2839H202.051V90.4258ZM202.051 92.2839H203.908V94.1419H202.051V92.2839ZM203.908 90.4258H205.765V92.2839H203.908V90.4258ZM203.908 88.5677H205.765V90.4258H203.908V88.5677ZM203.908 92.2839H205.765V94.1419H203.908V92.2839ZM203.908 94.1419H205.765V96H203.908V94.1419ZM205.765 94.1419H207.621V96H205.765V94.1419ZM207.621 94.1419H209.478V96H207.621V94.1419ZM207.621 92.2839H209.478V94.1419H207.621V92.2839ZM207.621 90.4258H209.478V92.2839H207.621V90.4258ZM205.765 90.4258H207.621V92.2839H205.765V90.4258ZM205.765 92.2839H207.621V94.1419H205.765V92.2839ZM205.765 88.5677H207.621V90.4258H205.765V88.5677ZM207.621 86.7097H209.478V88.5677H207.621V86.7097ZM207.621 84.8516H209.478V86.7097H207.621V84.8516ZM207.621 88.5677H209.478V90.4258H207.621V88.5677ZM205.765 86.7097H207.621V88.5677H205.765V86.7097ZM205.765 84.8516H207.621V86.7097H205.765V84.8516ZM205.765 82.9935H207.621V84.8516H205.765V82.9935ZM207.621 82.9935H209.478V84.8516H207.621V82.9935ZM207.621 81.1355H209.478V82.9935H207.621V81.1355ZM205.765 77.4194H207.621V79.2774H205.765V77.4194ZM207.621 77.4194H209.478V79.2774H207.621V77.4194ZM207.621 79.2774H209.478V81.1355H207.621V79.2774ZM205.765 79.2774H207.621V81.1355H205.765V79.2774ZM205.765 81.1355H207.621V82.9935H205.765V81.1355Z" fill="black"/>
<path d="M211.692 77.4194H213.548V79.2774H211.692V77.4194ZM213.548 77.4194H215.405V79.2774H213.548V77.4194ZM213.548 79.2774H215.405V81.1355H213.548V79.2774ZM213.548 81.1355H215.405V82.9935H213.548V81.1355ZM213.548 82.9935H215.405V84.8516H213.548V82.9935ZM211.692 82.9935H213.548V84.8516H211.692V82.9935ZM211.692 81.1355H213.548V82.9935H211.692V81.1355ZM211.692 79.2774H213.548V81.1355H211.692V79.2774ZM211.692 84.8516H213.548V86.7097H211.692V84.8516ZM211.692 86.7097H213.548V88.5677H211.692V86.7097ZM211.692 88.5677H213.548V90.4258H211.692V88.5677ZM213.548 86.7097H215.405V88.5677H213.548V86.7097ZM213.548 84.8516H215.405V86.7097H213.548V84.8516ZM213.548 88.5677H215.405V90.4258H213.548V88.5677ZM213.548 90.4258H215.405V92.2839H213.548V90.4258ZM211.692 92.2839H213.548V94.1419H211.692V92.2839ZM211.692 90.4258H213.548V92.2839H211.692V90.4258ZM211.692 94.1419H213.548V96H211.692V94.1419ZM213.548 94.1419H215.405V96H213.548V94.1419ZM213.548 92.2839H215.405V94.1419H213.548V92.2839ZM215.405 94.1419H217.262V96H215.405V94.1419ZM217.262 94.1419H219.119V96H217.262V94.1419ZM219.119 94.1419H220.976V96H219.119V94.1419ZM219.119 92.2839H220.976V94.1419H219.119V92.2839ZM217.262 92.2839H219.119V94.1419H217.262V92.2839ZM215.405 92.2839H217.262V94.1419H215.405V92.2839ZM215.405 77.4194H217.262V79.2774H215.405V77.4194ZM217.262 77.4194H219.119V79.2774H217.262V77.4194ZM219.119 77.4194H220.976V79.2774H219.119V77.4194ZM220.976 77.4194H222.833V79.2774H220.976V77.4194ZM219.119 79.2774H220.976V81.1355H219.119V79.2774ZM217.262 79.2774H219.119V81.1355H217.262V79.2774ZM215.405 79.2774H217.262V81.1355H215.405V79.2774ZM215.405 86.7097H217.262V88.5677H215.405V86.7097ZM217.262 84.8516H219.119V86.7097H217.262V84.8516ZM215.405 84.8516H217.262V86.7097H215.405V84.8516ZM217.262 86.7097H219.119V88.5677H217.262V86.7097ZM220.976 79.2774H222.833V81.1355H220.976V79.2774ZM220.976 92.2839H222.833V94.1419H220.976V92.2839ZM220.976 94.1419H222.833V96H220.976V94.1419ZM219.119 84.8516H220.976V86.7097H219.119V84.8516ZM219.119 86.7097H220.976V88.5677H219.119V86.7097Z" fill="black"/>
<path d="M226.893 86.7097H228.75V88.5677H226.893V86.7097ZM228.75 86.7097H230.607V88.5677H228.75V86.7097ZM230.607 86.7097H232.464V88.5677H230.607V86.7097ZM232.464 86.7097H234.321V88.5677H232.464V86.7097ZM228.75 88.5677H230.607V90.4258H228.75V88.5677ZM226.893 88.5677H228.75V90.4258H226.893V88.5677ZM230.607 88.5677H232.464V90.4258H230.607V88.5677ZM232.464 88.5677H234.321V90.4258H232.464V88.5677ZM234.321 90.4258H236.178V92.2839H234.321V90.4258ZM236.178 88.5677H238.035V90.4258H236.178V88.5677ZM234.321 88.5677H236.178V90.4258H234.321V88.5677ZM236.178 90.4258H238.035V92.2839H236.178V90.4258ZM234.321 92.2839H236.178V94.1419H234.321V92.2839ZM236.178 92.2839H238.035V94.1419H236.178V92.2839ZM236.178 94.1419H238.035V96H236.178V94.1419ZM234.321 94.1419H236.178V96H234.321V94.1419ZM226.893 94.1419H228.75V96H226.893V94.1419ZM225.037 94.1419H226.893V96H225.037V94.1419ZM225.037 92.2839H226.893V94.1419H225.037V92.2839ZM226.893 92.2839H228.75V94.1419H226.893V92.2839ZM226.893 90.4258H228.75V92.2839H226.893V90.4258ZM225.037 90.4258H226.893V92.2839H225.037V90.4258ZM225.037 88.5677H226.893V90.4258H225.037V88.5677ZM225.037 86.7097H226.893V88.5677H225.037V86.7097ZM225.037 84.8516H226.893V86.7097H225.037V84.8516ZM226.893 84.8516H228.75V86.7097H226.893V84.8516ZM225.037 77.4194H226.893V79.2774H225.037V77.4194ZM226.893 77.4194H228.75V79.2774H226.893V77.4194ZM228.75 77.4194H230.607V79.2774H228.75V77.4194ZM230.607 77.4194H232.464V79.2774H230.607V77.4194ZM232.464 77.4194H234.321V79.2774H232.464V77.4194ZM234.321 77.4194H236.178V79.2774H234.321V77.4194ZM234.321 79.2774H236.178V81.1355H234.321V79.2774ZM232.464 79.2774H234.321V81.1355H232.464V79.2774ZM230.607 79.2774H232.464V81.1355H230.607V79.2774ZM228.75 79.2774H230.607V81.1355H228.75V79.2774ZM226.893 79.2774H228.75V81.1355H226.893V79.2774ZM225.037 79.2774H226.893V81.1355H225.037V79.2774ZM225.037 81.1355H226.893V82.9935H225.037V81.1355ZM225.037 82.9935H226.893V84.8516H225.037V82.9935ZM226.893 82.9935H228.75V84.8516H226.893V82.9935ZM226.893 81.1355H228.75V82.9935H226.893V81.1355ZM234.321 81.1355H236.178V82.9935H234.321V81.1355ZM236.178 81.1355H238.035V82.9935H236.178V81.1355ZM236.178 79.2774H238.035V81.1355H236.178V79.2774ZM236.178 82.9935H238.035V84.8516H236.178V82.9935ZM234.321 82.9935H236.178V84.8516H234.321V82.9935ZM234.321 84.8516H236.178V86.7097H234.321V84.8516ZM236.178 84.8516H238.035V86.7097H236.178V84.8516ZM234.321 86.7097H236.178V88.5677H234.321V86.7097Z" fill="black"/>
<path d="M243.957 79.2774H245.814V81.1355H243.957V79.2774ZM245.814 79.2774H247.671V81.1355H245.814V79.2774ZM245.814 77.4194H247.671V79.2774H245.814V77.4194ZM247.671 79.2774H249.528V81.1355H247.671V79.2774ZM247.671 81.1355H249.528V82.9935H247.671V81.1355ZM249.528 81.1355H251.385V82.9935H249.528V81.1355ZM245.814 81.1355H247.671V82.9935H245.814V81.1355ZM243.957 81.1355H245.814V82.9935H243.957V81.1355ZM242.1 81.1355H243.957V82.9935H242.1V81.1355ZM242.1 82.9935H243.957V84.8516H242.1V82.9935ZM240.243 82.9935H242.1V84.8516H240.243V82.9935ZM243.957 82.9935H245.814V84.8516H243.957V82.9935ZM242.1 84.8516H243.957V86.7097H242.1V84.8516ZM242.1 86.7097H243.957V88.5677H242.1V86.7097ZM242.1 88.5677H243.957V90.4258H242.1V88.5677ZM243.957 88.5677H245.814V90.4258H243.957V88.5677ZM245.814 88.5677H247.671V90.4258H245.814V88.5677ZM247.671 88.5677H249.528V90.4258H247.671V88.5677ZM249.528 88.5677H251.385V90.4258H249.528V88.5677ZM251.385 88.5677H253.242V90.4258H251.385V88.5677ZM251.385 86.7097H253.242V88.5677H251.385V86.7097ZM251.385 84.8516H253.242V86.7097H251.385V84.8516ZM251.385 82.9935H253.242V84.8516H251.385V82.9935ZM249.528 82.9935H251.385V84.8516H249.528V82.9935ZM247.671 82.9935H249.528V84.8516H247.671V82.9935ZM249.528 84.8516H251.385V86.7097H249.528V84.8516ZM249.528 86.7097H251.385V88.5677H249.528V86.7097ZM249.528 90.4258H251.385V92.2839H249.528V90.4258ZM251.385 90.4258H253.242V92.2839H251.385V90.4258ZM251.385 92.2839H253.242V94.1419H251.385V92.2839ZM251.385 94.1419H253.242V96H251.385V94.1419ZM249.528 94.1419H251.385V96H249.528V94.1419ZM249.528 92.2839H251.385V94.1419H249.528V92.2839ZM247.671 90.4258H249.528V92.2839H247.671V90.4258ZM245.814 90.4258H247.671V92.2839H245.814V90.4258ZM243.957 90.4258H245.814V92.2839H243.957V90.4258ZM242.1 90.4258H243.957V92.2839H242.1V90.4258ZM242.1 92.2839H243.957V94.1419H242.1V92.2839ZM242.1 94.1419H243.957V96H242.1V94.1419ZM240.243 94.1419H242.1V96H240.243V94.1419ZM240.243 92.2839H242.1V94.1419H240.243V92.2839ZM240.243 90.4258H242.1V92.2839H240.243V90.4258ZM240.243 88.5677H242.1V90.4258H240.243V88.5677ZM240.243 86.7097H242.1V88.5677H240.243V86.7097ZM240.243 84.8516H242.1V86.7097H240.243V84.8516Z" fill="black"/>
<path d="M255.45 77.4194H257.307V79.2774H255.45V77.4194ZM257.307 77.4194H259.164V79.2774H257.307V77.4194ZM259.164 77.4194H261.021V79.2774H259.164V77.4194ZM261.021 77.4194H262.878V79.2774H261.021V77.4194ZM262.878 77.4194H264.735V79.2774H262.878V77.4194ZM264.735 77.4194H266.591V79.2774H264.735V77.4194ZM264.735 79.2774H266.591V81.1355H264.735V79.2774ZM262.878 79.2774H264.735V81.1355H262.878V79.2774ZM261.021 79.2774H262.878V81.1355H261.021V79.2774ZM259.164 79.2774H261.021V81.1355H259.164V79.2774ZM257.307 79.2774H259.164V81.1355H257.307V79.2774ZM255.45 79.2774H257.307V81.1355H255.45V79.2774ZM259.164 81.1355H261.021V82.9935H259.164V81.1355ZM259.164 82.9935H261.021V84.8516H259.164V82.9935ZM259.164 84.8516H261.021V86.7097H259.164V84.8516ZM259.164 86.7097H261.021V88.5677H259.164V86.7097ZM259.164 88.5677H261.021V90.4258H259.164V88.5677ZM259.164 90.4258H261.021V92.2839H259.164V90.4258ZM261.021 88.5677H262.878V90.4258H261.021V88.5677ZM261.021 86.7097H262.878V88.5677H261.021V86.7097ZM261.021 84.8516H262.878V86.7097H261.021V84.8516ZM261.021 82.9935H262.878V84.8516H261.021V82.9935ZM261.021 81.1355H262.878V82.9935H261.021V81.1355ZM261.021 90.4258H262.878V92.2839H261.021V90.4258ZM261.021 92.2839H262.878V94.1419H261.021V92.2839ZM261.021 94.1419H262.878V96H261.021V94.1419ZM259.164 94.1419H261.021V96H259.164V94.1419ZM259.164 92.2839H261.021V94.1419H259.164V92.2839Z" fill="black"/>
<path d="M272.509 77.4194H274.366V79.2774H272.509V77.4194ZM270.652 77.4194H272.509V79.2774H270.652V77.4194ZM270.652 79.2774H272.509V81.1355H270.652V79.2774ZM272.509 79.2774H274.366V81.1355H272.509V79.2774ZM274.366 79.2774H276.223V81.1355H274.366V79.2774ZM274.366 77.4194H276.223V79.2774H274.366V77.4194ZM276.223 77.4194H278.079V79.2774H276.223V77.4194ZM278.079 77.4194H279.936V79.2774H278.079V77.4194ZM278.079 79.2774H279.936V81.1355H278.079V79.2774ZM276.223 79.2774H278.079V81.1355H276.223V79.2774ZM276.223 81.1355H278.079V82.9935H276.223V81.1355ZM278.079 81.1355H279.936V82.9935H278.079V81.1355ZM279.936 79.2774H281.793V81.1355H279.936V79.2774ZM279.936 81.1355H281.793V82.9935H279.936V81.1355ZM279.936 82.9935H281.793V84.8516H279.936V82.9935ZM279.936 84.8516H281.793V86.7097H279.936V84.8516ZM279.936 86.7097H281.793V88.5677H279.936V86.7097ZM279.936 88.5677H281.793V90.4258H279.936V88.5677ZM279.936 90.4258H281.793V92.2839H279.936V90.4258ZM279.936 92.2839H281.793V94.1419H279.936V92.2839ZM278.079 92.2839H279.936V94.1419H278.079V92.2839ZM278.079 90.4258H279.936V92.2839H278.079V90.4258ZM278.079 88.5677H279.936V90.4258H278.079V88.5677ZM278.079 86.7097H279.936V88.5677H278.079V86.7097ZM278.079 84.8516H279.936V86.7097H278.079V84.8516ZM278.079 82.9935H279.936V84.8516H278.079V82.9935ZM276.223 90.4258H278.079V92.2839H276.223V90.4258ZM276.223 92.2839H278.079V94.1419H276.223V92.2839ZM278.079 94.1419H279.936V96H278.079V94.1419ZM276.223 94.1419H278.079V96H276.223V94.1419ZM274.366 94.1419H276.223V96H274.366V94.1419ZM274.366 92.2839H276.223V94.1419H274.366V92.2839ZM272.509 94.1419H274.366V96H272.509V94.1419ZM270.652 94.1419H272.509V96H270.652V94.1419ZM270.652 92.2839H272.509V94.1419H270.652V92.2839ZM272.509 92.2839H274.366V94.1419H272.509V92.2839ZM272.509 90.4258H274.366V92.2839H272.509V90.4258ZM270.652 90.4258H272.509V92.2839H270.652V90.4258ZM268.795 92.2839H270.652V94.1419H268.795V92.2839ZM268.795 90.4258H270.652V92.2839H268.795V90.4258ZM268.795 88.5677H270.652V90.4258H268.795V88.5677ZM268.795 86.7097H270.652V88.5677H268.795V86.7097ZM268.795 84.8516H270.652V86.7097H268.795V84.8516ZM268.795 82.9935H270.652V84.8516H268.795V82.9935ZM268.795 81.1355H270.652V82.9935H268.795V81.1355ZM270.652 81.1355H272.509V82.9935H270.652V81.1355ZM268.795 79.2774H270.652V81.1355H268.795V79.2774ZM272.509 81.1355H274.366V82.9935H272.509V81.1355ZM270.652 82.9935H272.509V84.8516H270.652V82.9935ZM270.652 84.8516H272.509V86.7097H270.652V84.8516ZM270.652 86.7097H272.509V88.5677H270.652V86.7097ZM270.652 88.5677H272.509V90.4258H270.652V88.5677Z" fill="black"/>
<path d="M285.859 86.7097H287.715V88.5677H285.859V86.7097ZM287.715 86.7097H289.572V88.5677H287.715V86.7097ZM289.572 86.7097H291.429V88.5677H289.572V86.7097ZM291.429 86.7097H293.286V88.5677H291.429V86.7097ZM287.715 88.5677H289.572V90.4258H287.715V88.5677ZM285.859 88.5677H287.715V90.4258H285.859V88.5677ZM289.572 88.5677H291.429V90.4258H289.572V88.5677ZM291.429 88.5677H293.286V90.4258H291.429V88.5677ZM293.286 90.4258H295.143V92.2839H293.286V90.4258ZM295.143 88.5677H297V90.4258H295.143V88.5677ZM293.286 88.5677H295.143V90.4258H293.286V88.5677ZM295.143 90.4258H297V92.2839H295.143V90.4258ZM293.286 92.2839H295.143V94.1419H293.286V92.2839ZM295.143 92.2839H297V94.1419H295.143V92.2839ZM295.143 94.1419H297V96H295.143V94.1419ZM293.286 94.1419H295.143V96H293.286V94.1419ZM285.859 94.1419H287.715V96H285.859V94.1419ZM284.002 94.1419H285.859V96H284.002V94.1419ZM284.002 92.2839H285.859V94.1419H284.002V92.2839ZM285.859 92.2839H287.715V94.1419H285.859V92.2839ZM285.859 90.4258H287.715V92.2839H285.859V90.4258ZM284.002 90.4258H285.859V92.2839H284.002V90.4258ZM284.002 88.5677H285.859V90.4258H284.002V88.5677ZM284.002 86.7097H285.859V88.5677H284.002V86.7097ZM284.002 84.8516H285.859V86.7097H284.002V84.8516ZM285.859 84.8516H287.715V86.7097H285.859V84.8516ZM284.002 77.4194H285.859V79.2774H284.002V77.4194ZM285.859 77.4194H287.715V79.2774H285.859V77.4194ZM287.715 77.4194H289.572V79.2774H287.715V77.4194ZM289.572 77.4194H291.429V79.2774H289.572V77.4194ZM291.429 77.4194H293.286V79.2774H291.429V77.4194ZM293.286 77.4194H295.143V79.2774H293.286V77.4194ZM293.286 79.2774H295.143V81.1355H293.286V79.2774ZM291.429 79.2774H293.286V81.1355H291.429V79.2774ZM289.572 79.2774H291.429V81.1355H289.572V79.2774ZM287.715 79.2774H289.572V81.1355H287.715V79.2774ZM285.859 79.2774H287.715V81.1355H285.859V79.2774ZM284.002 79.2774H285.859V81.1355H284.002V79.2774ZM284.002 81.1355H285.859V82.9935H284.002V81.1355ZM284.002 82.9935H285.859V84.8516H284.002V82.9935ZM285.859 82.9935H287.715V84.8516H285.859V82.9935ZM285.859 81.1355H287.715V82.9935H285.859V81.1355ZM293.286 81.1355H295.143V82.9935H293.286V81.1355ZM295.143 81.1355H297V82.9935H295.143V81.1355ZM295.143 79.2774H297V81.1355H295.143V79.2774ZM295.143 82.9935H297V84.8516H295.143V82.9935ZM293.286 82.9935H295.143V84.8516H293.286V82.9935ZM293.286 84.8516H295.143V86.7097H293.286V84.8516ZM295.143 84.8516H297V86.7097H295.143V84.8516ZM293.286 86.7097H295.143V88.5677H293.286V86.7097Z" fill="black"/>
</svg>
